<?xml version="1.0" encoding="UTF-8" standalone="no"?>
<!DOCTYPE svg PUBLIC "-//W3C//DTD SVG 1.1//EN"
 "http://www.w3.org/Graphics/SVG/1.1/DTD/svg11.dtd">
<!-- Generated by graphviz version 2.43.0 (0)
 -->
<!-- Title: G Pages: 1 -->
<svg width="613pt" height="476pt"
 viewBox="0.00 0.00 612.82 476.00" xmlns="http://www.w3.org/2000/svg" xmlns:xlink="http://www.w3.org/1999/xlink">
<g id="graph0" class="graph" transform="scale(1 1) rotate(0) translate(4 472)">
<title>G</title>
<polygon fill="white" stroke="transparent" points="-4,4 -4,-472 608.82,-472 608.82,4 -4,4"/>
<!-- 1 -->
<g id="node1" class="node">
<title>1</title>
<ellipse fill="none" stroke="black" cx="178.84" cy="-450" rx="76.09" ry="18"/>
<text text-anchor="middle" x="178.84" y="-446.3" font-family="Times,serif" font-size="14.00">Michael Jordan(1)</text>
</g>
<!-- 2 -->
<g id="node2" class="node">
<title>2</title>
<ellipse fill="none" stroke="black" cx="70.84" cy="-378" rx="70.69" ry="18"/>
<text text-anchor="middle" x="70.84" y="-374.3" font-family="Times,serif" font-size="14.00">Stephen Boyd(2)</text>
</g>
<!-- 1&#45;&gt;2 -->
<g id="edge1" class="edge">
<title>1&#45;&gt;2</title>
<path fill="none" stroke="black" d="M148.87,-433.29C133.21,-423.86 114.25,-411.7 98.89,-401.29"/>
<polygon fill="black" stroke="black" points="100.53,-398.17 90.31,-395.39 96.57,-403.94 100.53,-398.17"/>
</g>
<!-- 3 -->
<g id="node3" class="node">
<title>3</title>
<ellipse fill="none" stroke="black" cx="86.84" cy="-306" rx="79.09" ry="18"/>
<text text-anchor="middle" x="86.84" y="-302.3" font-family="Times,serif" font-size="14.00">Kalyanmoy Deb(3)</text>
</g>
<!-- 1&#45;&gt;3 -->
<g id="edge2" class="edge">
<title>1&#45;&gt;3</title>
<path fill="none" stroke="black" d="M169.91,-432.01C164.17,-413.11 156.85,-382.31 141.84,-360 134.16,-348.57 123.3,-338.29 113.18,-329.9"/>
<polygon fill="black" stroke="black" points="115.28,-327.1 105.29,-323.59 110.91,-332.57 115.28,-327.1"/>
</g>
<!-- 5 -->
<g id="node5" class="node">
<title>5</title>
<ellipse fill="none" stroke="black" cx="297.84" cy="-378" rx="81.79" ry="18"/>
<text text-anchor="middle" x="297.84" y="-374.3" font-family="Times,serif" font-size="14.00">Scott Kirkpatrick(5)</text>
</g>
<!-- 1&#45;&gt;5 -->
<g id="edge3" class="edge">
<title>1&#45;&gt;5</title>
<path fill="none" stroke="black" d="M205.85,-433.12C222.31,-423.43 243.57,-410.92 261.5,-400.38"/>
<polygon fill="black" stroke="black" points="263.69,-403.15 270.54,-395.06 260.14,-397.12 263.69,-403.15"/>
</g>
<!-- 2&#45;&gt;1 -->
<g id="edge5" class="edge">
<title>2&#45;&gt;1</title>
<path fill="none" stroke="black" d="M100.62,-394.59C116.3,-404.03 135.31,-416.22 150.73,-426.67"/>
<polygon fill="black" stroke="black" points="149.12,-429.81 159.34,-432.59 153.08,-424.04 149.12,-429.81"/>
</g>
<!-- 2&#45;&gt;3 -->
<g id="edge4" class="edge">
<title>2&#45;&gt;3</title>
<path fill="none" stroke="black" d="M68.88,-359.7C69.86,-351.9 71.78,-342.51 74.13,-333.83"/>
<polygon fill="black" stroke="black" points="77.52,-334.69 77.04,-324.1 70.82,-332.68 77.52,-334.69"/>
</g>
<!-- 3&#45;&gt;1 -->
<g id="edge6" class="edge">
<title>3&#45;&gt;1</title>
<path fill="none" stroke="black" d="M119.67,-322.45C134.04,-331.84 149.7,-344.92 159.84,-360 172.39,-378.65 179.56,-403.23 182.06,-421.84"/>
<polygon fill="black" stroke="black" points="178.6,-422.37 183,-432.01 185.57,-421.73 178.6,-422.37"/>
</g>
<!-- 3&#45;&gt;2 -->
<g id="edge7" class="edge">
<title>3&#45;&gt;2</title>
<path fill="none" stroke="black" d="M88.81,-324.28C87.83,-332.12 85.89,-341.57 83.53,-350.29"/>
<polygon fill="black" stroke="black" points="80.12,-349.47 80.6,-360.05 86.82,-351.48 80.12,-349.47"/>
</g>
<!-- 4 -->
<g id="node4" class="node">
<title>4</title>
<ellipse fill="none" stroke="black" cx="281.84" cy="-90" rx="73.39" ry="18"/>
<text text-anchor="middle" x="281.84" y="-86.3" font-family="Times,serif" font-size="14.00">David Johnson(4)</text>
</g>
<!-- 6 -->
<g id="node6" class="node">
<title>6</title>
<ellipse fill="none" stroke="black" cx="289.84" cy="-306" rx="97.48" ry="18"/>
<text text-anchor="middle" x="289.84" y="-302.3" font-family="Times,serif" font-size="14.00">Lieven Vandenberghe(6)</text>
</g>
<!-- 4&#45;&gt;6 -->
<g id="edge8" class="edge">
<title>4&#45;&gt;6</title>
<path fill="none" stroke="black" d="M264.53,-107.93C255.91,-117.59 246.38,-130.45 241.84,-144 236.76,-159.17 238.93,-164.27 241.84,-180 248.43,-215.51 264.7,-253.96 276.48,-278.71"/>
<polygon fill="black" stroke="black" points="273.38,-280.33 280.9,-287.79 279.67,-277.27 273.38,-280.33"/>
</g>
<!-- 5&#45;&gt;6 -->
<g id="edge9" class="edge">
<title>5&#45;&gt;6</title>
<path fill="none" stroke="black" d="M295.87,-359.7C294.98,-351.98 293.93,-342.71 292.94,-334.11"/>
<polygon fill="black" stroke="black" points="296.41,-333.64 291.8,-324.1 289.46,-334.44 296.41,-333.64"/>
</g>
<!-- 7 -->
<g id="node7" class="node">
<title>7</title>
<ellipse fill="none" stroke="black" cx="488.84" cy="-306" rx="83.39" ry="18"/>
<text text-anchor="middle" x="488.84" y="-302.3" font-family="Times,serif" font-size="14.00">Fabian Pedregosa(7)</text>
</g>
<!-- 5&#45;&gt;7 -->
<g id="edge10" class="edge">
<title>5&#45;&gt;7</title>
<path fill="none" stroke="black" d="M338.35,-362.15C367.72,-351.39 407.63,-336.76 438.97,-325.28"/>
<polygon fill="black" stroke="black" points="440.21,-328.55 448.4,-321.82 437.8,-321.98 440.21,-328.55"/>
</g>
<!-- 8 -->
<g id="node8" class="node">
<title>8</title>
<ellipse fill="none" stroke="black" cx="488.84" cy="-234" rx="71.49" ry="18"/>
<text text-anchor="middle" x="488.84" y="-230.3" font-family="Times,serif" font-size="14.00">Jorge Nocedal(8)</text>
</g>
<!-- 6&#45;&gt;8 -->
<g id="edge11" class="edge">
<title>6&#45;&gt;8</title>
<path fill="none" stroke="black" d="M333.02,-289.81C364.31,-278.81 406.67,-263.9 439.33,-252.42"/>
<polygon fill="black" stroke="black" points="440.86,-255.59 449.13,-248.97 438.53,-248.99 440.86,-255.59"/>
</g>
<!-- 7&#45;&gt;8 -->
<g id="edge12" class="edge">
<title>7&#45;&gt;8</title>
<path fill="none" stroke="black" d="M488.84,-287.7C488.84,-279.98 488.84,-270.71 488.84,-262.11"/>
<polygon fill="black" stroke="black" points="492.34,-262.1 488.84,-252.1 485.34,-262.1 492.34,-262.1"/>
</g>
<!-- 9 -->
<g id="node9" class="node">
<title>9</title>
<ellipse fill="none" stroke="black" cx="320.84" cy="-162" rx="69.59" ry="18"/>
<text text-anchor="middle" x="320.84" y="-158.3" font-family="Times,serif" font-size="14.00">Clifford Stein(9)</text>
</g>
<!-- 8&#45;&gt;9 -->
<g id="edge15" class="edge">
<title>8&#45;&gt;9</title>
<path fill="none" stroke="black" d="M453.63,-218.33C427.98,-207.64 393.04,-193.08 365.44,-181.58"/>
<polygon fill="black" stroke="black" points="366.59,-178.27 356.02,-177.65 363.9,-184.73 366.59,-178.27"/>
</g>
<!-- 10 -->
<g id="node10" class="node">
<title>10</title>
<ellipse fill="none" stroke="black" cx="488.84" cy="-162" rx="80.69" ry="18"/>
<text text-anchor="middle" x="488.84" y="-158.3" font-family="Times,serif" font-size="14.00">Stephen Wright(10)</text>
</g>
<!-- 8&#45;&gt;10 -->
<g id="edge14" class="edge">
<title>8&#45;&gt;10</title>
<path fill="none" stroke="black" d="M482.97,-216.05C482.15,-208.35 481.91,-199.03 482.24,-190.36"/>
<polygon fill="black" stroke="black" points="485.74,-190.49 482.93,-180.28 478.75,-190.01 485.74,-190.49"/>
</g>
<!-- 11 -->
<g id="node11" class="node">
<title>11</title>
<ellipse fill="none" stroke="black" cx="503.84" cy="-18" rx="92.88" ry="18"/>
<text text-anchor="middle" x="503.84" y="-14.3" font-family="Times,serif" font-size="14.00">Philippe Salembier(11)</text>
</g>
<!-- 8&#45;&gt;11 -->
<g id="edge13" class="edge">
<title>8&#45;&gt;11</title>
<path fill="none" stroke="black" d="M537,-220.62C558.25,-212.61 581.41,-199.85 594.84,-180 612.85,-153.41 599.51,-140.08 600.84,-108 601.51,-92.01 609.01,-85.76 600.84,-72 591.88,-56.89 576.93,-45.81 561.41,-37.81"/>
<polygon fill="black" stroke="black" points="562.79,-34.59 552.25,-33.45 559.78,-40.91 562.79,-34.59"/>
</g>
<!-- 9&#45;&gt;4 -->
<g id="edge16" class="edge">
<title>9&#45;&gt;4</title>
<path fill="none" stroke="black" d="M311.4,-144.05C306.92,-136.01 301.46,-126.2 296.46,-117.23"/>
<polygon fill="black" stroke="black" points="299.39,-115.31 291.47,-108.28 293.28,-118.71 299.39,-115.31"/>
</g>
<!-- 10&#45;&gt;8 -->
<g id="edge17" class="edge">
<title>10&#45;&gt;8</title>
<path fill="none" stroke="black" d="M494.76,-180.28C495.56,-188.03 495.78,-197.36 495.43,-206.01"/>
<polygon fill="black" stroke="black" points="491.94,-205.83 494.72,-216.05 498.92,-206.33 491.94,-205.83"/>
</g>
<!-- 12 -->
<g id="node12" class="node">
<title>12</title>
<ellipse fill="none" stroke="black" cx="503.84" cy="-90" rx="87.99" ry="18"/>
<text text-anchor="middle" x="503.84" y="-86.3" font-family="Times,serif" font-size="14.00">Robert Stevenson(12)</text>
</g>
<!-- 10&#45;&gt;12 -->
<g id="edge18" class="edge">
<title>10&#45;&gt;12</title>
<path fill="none" stroke="black" d="M486.64,-143.7C487.5,-135.9 489.29,-126.51 491.51,-117.83"/>
<polygon fill="black" stroke="black" points="494.91,-118.68 494.28,-108.1 488.18,-116.76 494.91,-118.68"/>
</g>
<!-- 11&#45;&gt;12 -->
<g id="edge19" class="edge">
<title>11&#45;&gt;12</title>
<path fill="none" stroke="black" d="M509.74,-36.1C510.54,-43.79 510.78,-53.05 510.45,-61.67"/>
<polygon fill="black" stroke="black" points="506.95,-61.48 509.76,-71.7 513.94,-61.96 506.95,-61.48"/>
</g>
<!-- 12&#45;&gt;8 -->
<g id="edge20" class="edge">
<title>12&#45;&gt;8</title>
<path fill="none" stroke="black" d="M539.36,-106.71C554.42,-115.37 570.41,-127.72 578.84,-144 586.2,-158.21 586.78,-166.11 578.84,-180 570.12,-195.27 555.09,-206.57 539.78,-214.73"/>
<polygon fill="black" stroke="black" points="538.2,-211.6 530.79,-219.17 541.3,-217.88 538.2,-211.6"/>
</g>
<!-- 12&#45;&gt;10 -->
<g id="edge21" class="edge">
<title>12&#45;&gt;10</title>
<path fill="none" stroke="black" d="M506.05,-108.28C505.19,-116.12 503.38,-125.57 501.15,-134.29"/>
<polygon fill="black" stroke="black" points="497.74,-133.48 498.35,-144.05 504.47,-135.4 497.74,-133.48"/>
</g>
<!-- 12&#45;&gt;11 -->
<g id="edge22" class="edge">
<title>12&#45;&gt;11</title>
<path fill="none" stroke="black" d="M497.93,-71.7C497.13,-63.98 496.91,-54.71 497.25,-46.11"/>
<polygon fill="black" stroke="black" points="500.74,-46.32 497.95,-36.1 493.76,-45.84 500.74,-46.32"/>
</g>
</g>
</svg>
